
<svg width="107px" height="25px" viewBox="0 0 107 25" version="1.1" xmlns="http://www.w3.org/2000/svg" xmlns:xlink="http://www.w3.org/1999/xlink">

    <title>Dots - 2 rows</title>
    <desc>Created with Sketch.</desc>
    <defs>
        <polygon id="path-1" points="8.94598801 11 0.0780392 11 0.0780392 0.7274 8.94598801 0.7274"></polygon>
        <polygon id="path-3" points="10.767 0.0001 10.767 10.2261 0.4993 10.2261 0.4993 0.0001 10.767 0.0001"></polygon>
    </defs>
    <g id="Comps" stroke="none" stroke-width="1" fill="none" fill-rule="evenodd">
        <g id="Desktop---Blog-Landing" transform="translate(-746.000000, -446.000000)">
            <g id="Dots---2-rows" transform="translate(746.000000, 446.000000)">
                <g id="Page-1">
                    <path d="M23.0484,6.9965 C24.5524,7.9285 26.1724,9.5265 27.6014,9.9315 C27.9094,10.0835 28.2024,10.2765 28.4784,10.3305 C30.0714,10.6765 32.1924,8.6125 34.0694,7.6215 C34.1034,6.6565 34.1484,5.7135 34.1864,4.7575 C32.6244,3.7485 31.0154,2.0305 29.5444,1.6805 C29.2304,1.5165 28.9184,1.3225 28.6294,1.2775 C27.0364,0.9655 24.9614,3.0855 23.0924,4.1265 C23.0754,5.0895 23.0694,6.0405 23.0484,6.9965" id="Fill-1" fill="#FF008C"></path>
                    <path d="M53.9425,0.053 C52.9905,0.092 52.0485,0.117 51.0935,0.15 C50.0875,2.046 48.0385,4.18 48.3805,5.773 C48.3905,5.793 48.4085,5.793 48.4165,5.807 C48.4015,5.849 48.4025,5.885 48.3885,5.927 C48.7365,7.703 51.3195,10.246 52.8845,10.228 C52.9185,10.263 52.9685,10.29 53.0055,10.325 C53.0565,10.253 53.1615,10.182 53.2125,10.112 C54.7785,9.784 56.9515,7.409 57.1885,5.74 C57.2015,5.663 57.1535,5.571 57.1505,5.494 C57.1635,5.453 57.1885,5.431 57.1875,5.395 C57.3905,3.762 55.1145,1.848 53.9425,0.053" id="Fill-3" fill="#FF008C"></path>
                    <path d="M3.2529,0.1456 C3.1789,0.2456 3.0889,0.3446 3.0349,0.4426 C3.0169,0.4446 2.9809,0.4446 2.9809,0.4446 C2.8229,0.6856 2.6389,0.9466 2.4519,1.2026 C1.2709,2.6876 -0.1501,4.1876 0.0129,5.5006 C0.0129,5.5366 0.0489,5.5706 0.0489,5.6046 C0.0539,5.7176 -0.0111,5.8316 0.0029,5.9286 C0.1169,6.5606 0.5629,7.1526 1.0969,7.7096 C1.7539,8.6096 2.5749,9.3466 3.3649,9.7436 C3.7479,10.0416 4.1029,10.3546 4.4199,10.6606 C4.7459,10.3336 5.1329,10.0186 5.5199,9.7046 C6.4779,9.1936 7.5209,8.2336 8.1769,7.2396 C8.4929,6.8226 8.7399,6.3766 8.8219,5.9176 C8.8119,5.8976 8.8049,5.8826 8.8119,5.8616 L8.8219,5.8466 C9.1689,4.2546 7.1009,2.1256 6.1079,0.2316 C5.1559,0.2006 4.2089,0.1846 3.2529,0.1456" id="Fill-5" fill="#FF008C"></path>
                    <path d="M72.2966,5.5777 C73.4066,6.8097 74.3826,8.5987 75.5536,9.5697 C75.9516,9.8957 76.3436,10.1447 76.7996,10.2377 C78.3886,10.6127 80.5456,8.5827 82.4546,7.6187 C82.4816,6.6757 82.5336,5.7107 82.5796,4.7697 L82.5576,4.7627 C82.5576,4.6917 82.5816,4.5997 82.5756,4.5227 C80.8036,3.3127 78.8986,1.0207 77.2876,1.1867 C75.4936,1.3767 73.9396,3.8577 72.2896,5.3247 C72.3356,5.3797 72.3766,5.4227 72.4106,5.4577 C72.3646,5.5067 72.3346,5.5487 72.2966,5.5777" id="Fill-7" fill="#FF008C"></path>
                    <path d="M42.2843,14.7493 C41.3233,14.7403 40.3643,14.7303 39.4173,14.7133 C38.2753,16.5483 36.0763,18.5273 36.3223,20.1433 C36.6013,21.9193 39.0973,23.3673 40.6413,24.9593 C42.2203,23.4223 44.7813,22.0773 45.1333,20.2853 C45.4273,18.6933 43.3183,16.6223 42.2843,14.7493" id="Fill-9" fill="#FF008C"></path>
                    <g id="Group-13" transform="translate(12.000000, 14.000000)">
                        <mask id="mask-2" fill="white">
                            <use xlink:href="#path-1"></use>
                        </mask>
                        <g id="Clip-12"></g>
                        <path d="M5.6895,0.7274 C4.7195,0.7664 3.7665,0.8064 2.8285,0.8374 C1.8345,2.7204 -0.2285,4.8614 0.1165,6.4604 C0.5095,8.2214 3.1125,9.5004 4.7345,11.0004 C6.2165,9.3794 8.7235,7.8584 8.9345,6.0694 C9.1265,4.4494 6.8645,2.5274 5.6895,0.7274" id="Fill-11" fill="#FF008C" mask="url(#mask-2)"></path>
                    </g>
                    <path d="M69.3262,20.0818 C69.5572,18.4688 67.3362,16.4898 66.2222,14.6668 C65.2632,14.6918 64.2992,14.7118 63.3502,14.7228 C62.3102,16.5828 60.1962,18.6618 60.5112,20.2688 C60.8582,22.0448 63.4472,24.6018 65.0192,24.5628 C66.5802,24.5378 69.0552,21.8568 69.3262,20.0818" id="Fill-14" fill="#FF008C"></path>
                    <path d="M89.057,15.7726 C87.446,15.4956 85.429,17.6566 83.57,18.7536 C83.585,19.7116 83.579,20.6596 83.576,21.6176 C85.424,22.7006 87.453,24.8556 89.065,24.5846 C90.847,24.2686 93.455,21.7416 93.46,20.1726 C93.45,18.6036 90.824,16.0816 89.057,15.7726" id="Fill-16" fill="#FF008C"></path>
                    <g id="Group-20" transform="translate(96.000000, 0.000000)">
                        <mask id="mask-4" fill="white">
                            <use xlink:href="#path-3"></use>
                        </mask>
                        <g id="Clip-19"></g>
                        <path d="M8.7373,3.1171 C8.0473,2.0851 7.1233,1.0121 6.4793,0.0001 C5.5163,0.0181 4.5623,0.0231 3.6133,0.0331 C2.6483,1.7691 0.8563,3.6451 0.8223,5.1931 C0.7173,5.3001 0.5963,5.4421 0.4993,5.5281 C0.7263,5.7991 0.9583,6.1141 1.1883,6.4191 C1.3853,6.7341 1.5953,7.0411 1.8903,7.3401 C2.8273,8.6431 3.7883,9.9271 4.9873,10.1941 C5.0503,10.2141 5.1343,10.1701 5.2093,10.1771 C5.2333,10.1901 5.2653,10.2191 5.2863,10.2261 C5.3113,10.2041 5.3353,10.1831 5.3603,10.1611 C6.9133,10.1931 8.8743,8.4671 10.6463,7.5821 C10.6843,6.6261 10.7223,5.6681 10.7673,4.7251 C10.0983,4.2841 9.4153,3.6791 8.7373,3.1171" id="Fill-18" fill="#FF008C" mask="url(#mask-4)"></path>
                    </g>
                </g>
            </g>
        </g>
    </g>
</svg>