<svg version="1.1" id="Layer_1" xmlns="http://www.w3.org/2000/svg" xmlns:xlink="http://www.w3.org/1999/xlink" x="0px" y="0px"
	 viewBox="0 0 300 300" enable-background="new 0 0 300 300" xml:space="preserve">
<path fill="#FFFFFF" d="M266.7,150c0,64.4-52.2,116.7-116.7,116.7S33.3,214.4,33.3,150S85.6,33.3,150,33.3S266.7,85.6,266.7,150z"/>
<g>
	<g>
		<path fill="#082037" d="M186.3,150.9c0,0-2.6,2.8-2.8,2.8l1.7,1.7l1.7-1.7l8.7-8.7c2-2,3.3-3.9,3.3-6.7c0-4.6-3.7-8.3-8.3-8.3
			c-4.6,0-8.5,3.9-8.1,8.3C183.1,145,191.3,145.6,186.3,150.9z"/>
	</g>
	<g>
		<path fill="#082037" d="M176.7,192c-8.5,3.1-18.3,2.6-26.7-1.5l15.4-15.4l-1.7-1.7l-15.9,15.9c-2.4-1.5-4.8-3.3-7-5.4
			c-9.8-9.8-12.4-24.3-7.8-36.5c0.4-0.9-0.2-1.9-1.7-1.1c-1.3,0.7-2.6,1.7-3.9,2.6c-6.7,5.7-9.6,11.5-11.1,15.4l0,0
			c-4.3,12-1.5,25.9,8.1,35.7c13.3,13.3,35,13.3,48.5,0c2-2,3.7-4.3,5.2-6.5C179.1,192.2,177.8,191.7,176.7,192z"/>
	</g>
	<g>
		<path fill="#082037" d="M136.7,108.9c-0.7-0.9-1.3-2-1.3-3.3c0-2.8,2.2-5,5-5c1.5,0,2.8,0.7,3.7,1.7
			c10.9,10.9,10.4,10.4,13.1,13.1c3.5,3.5,6.3,8,5.9,13.7c0,2,0.6,3,2.2,1.1c10.7-12,9.8-26.5,3.5-32.8l-7.2-7.2
			c-1.9-1.9-3.9-4.4-8.3-4.4c-2.4,0-4.6,0.9-6.3,2.4c-0.2,0.2-39.8,39.8-40,40c-5.9,5.9-8.9,12.6-6.1,21.5c2,6.7,7.4,11.1,10.6,12.2
			c3.1,1.1,4.3-0.6,4.3-1.9c0-1.1-1.1-2.2-2.6-2.4c-1.5-0.2-7-1.7-9.3-7.8c-1.3-3.5-3.3-11.7,3.7-18.7c1.5-1.5,5.2-5.4,5.6-5.6
			c1.9-1.7,4.6-1.9,7,0.6c0.6,0.6,55.7,55.7,56.5,56.7c8.1,8,11.1,18.5,10.9,26.3c0,0.9,0.7,1.7,1.9,0.4c12-14.3,11.3-36.7,0.9-47
			C190.2,162.6,136.7,108.9,136.7,108.9z"/>
	</g>
</g>
</svg>